<?xml version="1.0" encoding="iso-8859-1"?>
<!-- Generator: Adobe Illustrator 19.0.0, SVG Export Plug-In . SVG Version: 6.00 Build 0)  -->
<svg version="1.1" id="Layer_1" xmlns="http://www.w3.org/2000/svg" xmlns:xlink="http://www.w3.org/1999/xlink" x="0px" y="0px"
	 viewBox="0 0 489.658 489.658" style="enable-background:new 0 0 489.658 489.658;" xml:space="preserve">
<g>
	<path d="M244.829,339.829c33.137,0,60-26.863,60-60c0-0.757-0.029-1.507-0.057-2.258c-5.492,2.499-11.588,3.901-18.015,3.901
		c-24.064,0-43.571-19.508-43.571-43.572c0-6.427,1.403-12.522,3.901-18.015c-0.75-0.028-1.5-0.057-2.258-0.057
		c-33.137,0-60,26.863-60,60S211.692,339.829,244.829,339.829z"/>
	<path d="M83.723,137.349c48.654-28.683,104.364-43.843,161.106-43.843s112.452,15.16,161.106,43.843
		c20.136,11.87,39.023,26.029,56.137,42.083l20.525-21.879c-18.723-17.563-39.39-33.057-61.427-46.048
		c-53.268-31.401-114.245-47.999-176.341-47.999S121.755,80.104,68.488,111.505c-22.037,12.991-42.704,28.484-61.427,46.048
		l20.525,21.879C44.7,163.378,63.587,149.219,83.723,137.349z"/>
	<path d="M485.313,272.318c-23.973-41.441-58.445-76.197-99.691-100.512c-42.505-25.057-91.19-38.301-140.793-38.301
		s-98.288,13.244-140.793,38.301c-41.246,24.314-75.718,59.07-99.691,100.512L0,279.829l4.345,7.511
		c23.973,41.441,58.445,76.197,99.691,100.512c42.505,25.057,91.19,38.301,140.793,38.301s98.288-13.244,140.793-38.301
		c41.246-24.314,75.718-59.07,99.691-100.512l4.345-7.511L485.313,272.318z M361.152,279.829
		c0,64.141-52.183,116.323-116.323,116.323S128.506,343.97,128.506,279.829s52.183-116.323,116.323-116.323
		S361.152,215.688,361.152,279.829z M34.838,279.829c22.941-36.588,54.81-66.031,91.792-86.145
		c-17.674,24.184-28.124,53.965-28.124,86.145s10.45,61.961,28.124,86.145C89.648,345.86,57.779,316.417,34.838,279.829z
		 M363.028,365.974c17.674-24.184,28.124-53.965,28.124-86.145s-10.45-61.961-28.124-86.145
		c36.982,20.114,68.851,49.557,91.792,86.145C431.879,316.417,400.01,345.86,363.028,365.974z"/>
</g>
<g>
</g>
<g>
</g>
<g>
</g>
<g>
</g>
<g>
</g>
<g>
</g>
<g>
</g>
<g>
</g>
<g>
</g>
<g>
</g>
<g>
</g>
<g>
</g>
<g>
</g>
<g>
</g>
<g>
</g>
</svg>
