<?xml version="1.0" encoding="iso-8859-1"?>
<!-- Generator: Adobe Illustrator 19.0.0, SVG Export Plug-In . SVG Version: 6.00 Build 0)  -->
<svg version="1.1" id="Layer_1" xmlns="http://www.w3.org/2000/svg" xmlns:xlink="http://www.w3.org/1999/xlink" x="0px" y="0px"
	 viewBox="0 0 512 512" style="enable-background:new 0 0 512 512;" xml:space="preserve">
<g>
	<g>
		<path d="M503.758,236.1l-93.123-93.124c-5.317-5.314-12.384-8.241-19.9-8.241c-15.518,0-28.144,12.625-28.144,28.143v58.692
			H149.408v-58.692c0-15.518-12.625-28.143-28.143-28.143c-7.517,0-14.584,2.927-19.9,8.242L8.242,236.101
			C2.927,241.417,0,248.484,0,256.001c0,7.517,2.927,14.584,8.243,19.901l93.124,93.122c5.315,5.315,12.382,8.242,19.899,8.242
			c15.518,0,28.143-12.625,28.143-28.143V290.43h213.184v58.692c0,15.518,12.626,28.143,28.144,28.143
			c7.516,0,14.582-2.927,19.9-8.241l93.122-93.123c5.316-5.316,8.243-12.384,8.243-19.901
			C512,248.484,509.073,241.416,503.758,236.1z M489.333,261.476l-93.121,93.122c-1.463,1.464-3.409,2.269-5.477,2.269
			c-4.271,0-7.745-3.474-7.745-7.744v-68.892c0-5.632-4.567-10.199-10.199-10.199H139.209c-5.633,0-10.199,4.566-10.199,10.199
			v68.891c0,4.27-3.474,7.744-7.744,7.744c-2.068,0-4.013-0.806-5.476-2.268l-93.122-93.122c-1.464-1.463-2.269-3.409-2.269-5.477
			s0.806-4.014,2.268-5.476l93.122-93.123c1.464-1.463,3.409-2.268,5.477-2.268c4.27,0,7.744,3.474,7.744,7.744v68.892
			c0,5.632,4.566,10.199,10.199,10.199H372.79c5.632,0,10.199-4.567,10.199-10.199v-68.892c0-4.27,3.474-7.744,7.745-7.744
			c2.068,0,4.013,0.806,5.476,2.268l93.122,93.123c1.464,1.463,2.269,3.408,2.269,5.476S490.796,260.014,489.333,261.476z"/>
	</g>
</g>
<g>
	<g>
		<path d="M104.219,195.639c-3.984-3.982-10.442-3.982-14.425,0l-1.133,1.133c-3.983,3.984-3.983,10.442,0,14.425
			c1.991,1.991,4.602,2.987,7.212,2.987s5.221-0.996,7.213-2.987l1.133-1.133C108.201,206.079,108.201,199.621,104.219,195.639z"/>
	</g>
</g>
<g>
	<g>
		<path d="M82.959,216.639c-3.984-3.982-10.442-3.982-14.425,0l-29.85,29.85c-3.983,3.984-3.983,10.442,0,14.425
			c1.991,1.991,4.602,2.987,7.212,2.987s5.221-0.995,7.213-2.987l29.85-29.85C86.942,227.08,86.942,220.622,82.959,216.639z"/>
	</g>
</g>
<g>
</g>
<g>
</g>
<g>
</g>
<g>
</g>
<g>
</g>
<g>
</g>
<g>
</g>
<g>
</g>
<g>
</g>
<g>
</g>
<g>
</g>
<g>
</g>
<g>
</g>
<g>
</g>
<g>
</g>
</svg>
