<svg height="512" viewBox="0 0 60 60" width="512" xmlns="http://www.w3.org/2000/svg"><g id="Page-1" fill="none" fill-rule="evenodd"><g id="028---Height-Restrictions" fill="rgb(0,0,0)" fill-rule="nonzero" transform="translate(0 -1)"><path id="Shape" d="m13 26v8c-.0013285 1.3264893.5250291 2.5990309 1.4629991 3.5370009s2.2105116 1.4643276 3.5370009 1.4629991c1.0854693-.0036768 2.1396111-.3641933 3-1.026v18.026c-.0062173 2.1566753 1.3751502 4.0727751 3.423267 4.7484261 2.0481169.675651 4.2984577-.0423886 5.576733-1.7794261.1421488.2019063.2985473.3933942.468.573 1.4311525 1.4282965 3.5816691 1.8540583 5.4490809 1.0788153 1.8674117-.7752429 3.0841066-2.5988789 3.0829191-4.6208153v-18.025c1.5068327 1.1540984 3.5390451 1.3502657 5.238807.5056965 1.699762-.8445692 2.7708704-2.5826991 2.761193-4.4806965v-8c-.0055111-4.9682782-4.0317218-8.9944889-9-9h-2.356c2.9732356-2.3937318 4.1130871-6.4026408 2.8440302-10.00258198-1.2690568-3.59994118-4.6709525-6.00778634-8.4880302-6.00778634s-7.2189734 2.40784516-8.4880302 6.00778634c-1.2690569 3.59994118-.1292054 7.60885018 2.8440302 10.00258198h-2.356c-4.9682782.0055111-8.9944889 4.0317218-9 9zm10-16c0-3.86599325 3.1340068-7 7-7s7 3.13400675 7 7c0 3.8659932-3.1340068 7-7 7-3.8641657-.0044086-6.9955914-3.1358343-7-7zm15 9c3.8641657.0044086 6.9955914 3.1358343 7 7v8c0 1.6568542-1.3431458 3-3 3s-3-1.3431458-3-3v-8c0-.5522847-.4477153-1-1-1s-1 .4477153-1 1v30c0 1.6568542-1.3431458 3-3 3s-3-1.3431458-3-3v-13c0-.5522847-.4477153-1-1-1s-1 .4477153-1 1v13c0 1.0717968-.5717967 2.0621779-1.5 2.5980763-.9282032.5358984-2.0717968.5358984-3 0-.9282033-.5358984-1.5-1.5262795-1.5-2.5980763v-30c0-.5522847-.4477153-1-1-1s-1 .4477153-1 1v8c0 1.6568542-1.3431458 3-3 3s-3-1.3431458-3-3v-8c.0044086-3.8641657 3.1358343-6.9955914 7-7z"/><path id="Shape" d="m2 61h7c1.1045695 0 2-.8954305 2-2v-56c0-1.1045695-.8954305-2-2-2h-7c-1.1045695 0-2 .8954305-2 2v56c0 1.1045695.8954305 2 2 2zm7-58v56h-7v-3h3c.55228475 0 1-.4477153 1-1s-.44771525-1-1-1h-3v-2h2c.55228475 0 1-.4477153 1-1s-.44771525-1-1-1h-2v-2h3c.55228475 0 1-.4477153 1-1s-.44771525-1-1-1h-3v-2h2c.55228475 0 1-.4477153 1-1s-.44771525-1-1-1h-2v-2h3c.55228475 0 1-.4477153 1-1s-.44771525-1-1-1h-3v-2h2c.55228475 0 1-.4477153 1-1s-.44771525-1-1-1h-2v-2h3c.55228475 0 1-.4477153 1-1s-.44771525-1-1-1h-3v-2h2c.55228475 0 1-.4477153 1-1s-.44771525-1-1-1h-2v-2h3c.55228475 0 1-.4477153 1-1s-.44771525-1-1-1h-3v-2h2c.55228475 0 1-.4477153 1-1s-.44771525-1-1-1h-2v-2h3c.55228475 0 1-.4477153 1-1s-.44771525-1-1-1h-3v-2h2c.55228475 0 1-.4477153 1-1s-.44771525-1-1-1h-2v-2h3c.55228475 0 1-.44771525 1-1s-.44771525-1-1-1h-3v-3z"/><path id="Shape" d="m57.8 11c.8532755.0154958 1.6374808-.4672122 2.008-1.236.3360062-.70783566.2277298-1.54668433-.277-2.146l-4.8-5.818c-.4444241-.48583267-1.0725578-.76253702-1.731-.76253702s-1.2865759.27670435-1.731.76253702l-4.8 5.818c-.5047298.59931567-.6130062 1.43816434-.277 2.146.3705192.7687878 1.1547245 1.2514958 2.008 1.236h.8v40h-.8c-.8532755-.0154958-1.6374808.4672122-2.008 1.236-.3360062.7078357-.2277298 1.5466843.277 2.146l4.8 5.818c.4318653.5074563 1.0646521.799851 1.731.799851s1.2991347-.2923947 1.731-.799851l4.8-5.818c.5047298-.5993157.6130062-1.4381643.277-2.146-.3705192-.7687878-1.1547245-1.2514958-2.008-1.236h-.8v-40zm-1.8 42h1.8c.154 0 .2.082.188.109l-4.8 5.818c-.0489108.0516154-.1168916.0808512-.188.0808512s-.1390892-.0292358-.188-.0808512l-4.812-5.827c0-.016.048-.1.2-.1h1.8c.5522847 0 1-.4477153 1-1v-42c0-.55228475-.4477153-1-1-1h-1.8c-.154 0-.2-.082-.188-.109l4.8-5.818c.0489108-.0516154.1168916-.08085119.188-.08085119s.1390892.02923579.188.08085119l4.812 5.827c0 .016-.048.1-.2.1h-1.8c-.5522847 0-1 .44771525-1 1v42c0 .5522847.4477153 1 1 1z"/></g></g></svg>