<svg id="Capa_1" enable-background="new 0 0 512 512" height="512" viewBox="0 0 512 512" width="512" xmlns="http://www.w3.org/2000/svg"><g><path d="m475.751 269.827c-16.196-7.812-38.558-14.118-66.554-18.789l-24.674-154.207c-3.321-20.762-20.993-35.831-42.018-35.831-6.572 0-13.153 1.554-19.031 4.493-42.249 21.125-92.697 21.125-134.948 0-5.879-2.94-12.459-4.493-19.031-4.493-21.025 0-38.697 15.069-42.019 35.831l-24.673 154.207c-27.996 4.671-50.359 10.977-66.554 18.789-29.96 14.451-36.249 33.086-36.249 46.173 0 28.608 29.332 62.124 78.462 89.654 30.223 16.935 93.476 45.346 177.538 45.346s147.315-28.411 177.538-45.346c49.13-27.53 78.462-61.046 78.462-89.654 0-13.087-6.289-31.722-36.249-46.173zm-87.461 40.429c.406 2.54-1.172 5.054-3.518 5.606-85.447 20.083-172.099 20.083-257.544 0-2.347-.551-3.925-3.066-3.519-5.606l4.422-27.638c42.467 9.391 85.168 14.096 127.868 14.096s85.401-4.705 127.868-14.096zm-231.19-208.686c.98-6.125 6.193-10.57 12.396-10.57 1.938 0 3.881.458 5.615 1.326 24.984 12.492 52.956 19.095 80.89 19.095 27.935 0 55.905-6.603 80.891-19.096 1.734-.867 3.676-1.325 5.614-1.325 6.202 0 11.415 4.445 12.396 10.57l24.218 151.364c-81.771 18.34-164.466 18.34-246.237 0zm261.773 277.913c-27.671 15.505-85.625 41.517-162.873 41.517s-135.202-26.012-162.873-41.517c-41.443-23.223-63.127-49.515-63.127-63.483 0-10.412 18.242-24.094 67.785-33.597l-3.698 23.113c-2.886 18.036 8.656 35.408 26.277 39.55 45 10.577 90.318 15.865 135.636 15.865s90.636-5.288 135.636-15.865h.001c17.62-4.142 29.162-21.515 26.276-39.55l-3.698-23.113c49.543 9.503 67.785 23.185 67.785 33.597 0 13.968-21.684 40.26-63.127 63.483z"/></g></svg>