<?xml version="1.0" encoding="iso-8859-1"?>
<!-- Generator: Adobe Illustrator 19.0.0, SVG Export Plug-In . SVG Version: 6.00 Build 0)  -->
<svg version="1.1" id="Capa_1" xmlns="http://www.w3.org/2000/svg" xmlns:xlink="http://www.w3.org/1999/xlink" x="0px" y="0px"
	 viewBox="0 0 512 512" style="enable-background:new 0 0 512 512;" xml:space="preserve">
<g>
	<g>
		<path d="M115.996,296.002c-5.52,0-10,4.48-10,10c0,5.52,4.48,10,10,10s10-4.48,10-10
			C125.997,300.482,121.516,296.002,115.996,296.002z"/>
	</g>
</g>
<g>
	<g>
		<path d="M256.001,356.004c-35.335,0-70.138-11.151-103.442-33.146c-4.609-3.043-10.812-1.775-13.855,2.834
			c-3.043,4.609-1.774,10.812,2.834,13.855c36.631,24.191,75.143,36.456,114.465,36.456c5.522,0,10-4.477,10-10
			S261.523,356.004,256.001,356.004z"/>
	</g>
</g>
<g>
	<g>
		<path d="M506.904,237.28l-56.815-31.893c-30.786-17.594-60.26-59.706-87.014-86.461c-25.875-25.877-57.297-22.653-58.793-22.93
			c-17.73,0-34.559,5.855-48.282,16.65c-13.723-10.794-30.553-16.65-48.282-16.65c-1.581,0.293-32.83-3.033-58.794,22.93
			c-26.682,26.684-56.252,68.883-86.947,86.424L5.097,237.281c-4.848,2.731-6.519,8.915-3.783,13.69
			C53.434,341.983,151.407,416.007,256,416.007c104.515,0,202.522-73.949,254.686-165.035
			C513.43,246.187,511.736,239.982,506.904,237.28z M71.836,222.751c34.61-19.779,64.544-62.996,91.233-89.684
			c19.665-19.666,43.15-16.802,44.651-17.072c15.566,0,30.202,6.063,41.209,17.072c1.875,1.875,4.419,2.929,7.071,2.929
			c2.652,0,5.196-1.054,7.071-2.929c11.008-11.008,25.644-17.072,41.21-17.072c1.518,0.274,24.978-2.602,44.649,17.072
			c26.68,26.679,56.611,69.898,91.299,89.722l32.085,18.011c-3.451,0.37-7.15,0.718-11.212,1.05
			c-55.868,3.153-92.518-17.883-119.276-33.247c-18.237-10.47-17.063-9.219-25.572-13.659c-18.881-9.445-31.066,1.758-39.963,9.937
			c-6.49,5.965-12.095,11.117-20.293,11.117c-8.198,0-13.803-5.152-20.293-11.117c-8.898-8.178-21.084-19.383-39.96-9.938
			c-9.655,5.038-7.37,3.172-26.884,14.362c-27.289,15.648-61.241,35.119-114.38,32.83c-5.454-0.412-10.338-0.85-14.809-1.33
			L71.836,222.751z M379.454,249.513c-6.137,1.21-11.977,2.683-17.389,4.516C323.237,267.179,305.19,296.003,256,296.003
			c-49.677,0-67.63-28.809-106.377-41.969c-5.291-1.798-10.991-3.252-16.982-4.45c18.24-6.923,33.302-15.548,46.169-22.926
			c18.675-10.708,17.274-9.332,25.881-13.823c5.983-2.992,8.478-1.5,17.48,6.774c7.526,6.918,17.834,16.393,33.828,16.393
			s26.301-9.474,33.827-16.393c9.001-8.273,11.496-9.767,17.483-6.773c8.871,4.627,6.824,2.931,24.559,13.114
			C345.119,233.556,360.618,242.442,379.454,249.513z M256.001,396.005c-94.236,0-178.254-65.616-225.569-136.063
			c7.669,1.088,15.247,1.809,22.612,2.144c0.072,0.006,0.143,0.013,0.215,0.018c30.617,2.326,66.676,2.964,89.932,10.866
			c34.801,11.821,57.044,43.032,112.81,43.032c55.434,0,77.505-31.183,112.482-43.03c24.275-8.223,61.294-8.491,94.098-11.174
			c0.001,0,0.002,0,0.003,0c6.238-0.364,12.608-0.999,19.011-1.891C434.282,330.367,350.252,396.005,256.001,396.005z"/>
	</g>
</g>
<g>
</g>
<g>
</g>
<g>
</g>
<g>
</g>
<g>
</g>
<g>
</g>
<g>
</g>
<g>
</g>
<g>
</g>
<g>
</g>
<g>
</g>
<g>
</g>
<g>
</g>
<g>
</g>
<g>
</g>
</svg>
