<svg height="512pt" viewBox="-30 0 512 512.001" width="512pt" xmlns="http://www.w3.org/2000/svg"><path d="m452.03125 241.003906c0-54.613281-19.75-107.339844-55.605469-148.460937-2.722656-3.121094-7.460937-3.445313-10.582031-.722657-3.121094 2.71875-3.445312 7.457032-.722656 10.582032 33.472656 38.386718 51.910156 87.613281 51.910156 138.605468l.019531 31.828126c-17.09375 3.484374-29.996093 18.636718-29.996093 36.746093v60c0 9.785157-6.277344 18.128907-15.015626 21.222657l-.113281-57.5c.066407-1.914063.101563-3.832032.101563-5.753907 0-.433593-.042969-.859375-.113282-1.273437l-.109374-55.292969c-.007813-4.132813-3.355469-7.480469-7.484376-7.488281-20.617187-.035156-40.757812-5.683594-58.246093-16.328125-2.398438-1.457031-5.40625-1.457031-7.804688.003906-2.398437 1.457031-3.777343 4.132813-3.578125 6.933594.214844 3.019531.523438 6.042969.925782 9.042969-17.550782-1.382813-34.519532-6.835938-49.542969-15.980469-2.398438-1.457031-5.40625-1.457031-7.804688.003906-2.398437 1.457031-3.777343 4.132813-3.578125 6.933594.214844 3.019531.523438 6.042969.925782 9.046875-50.652344-3.96875-92.746094-41.492188-101.816407-92.136719-.636719-3.554687-3.71875-6.152344-7.332031-6.175781-3.59375-.011719-6.730469 2.527344-7.417969 6.074218-1.949219 10.105469-2.710937 20.671876-2.292969 31.304688-9.1875-11.5-15.8125-24.199219-19.480468-37.488281-.726563-2.617188-2.808594-4.640625-5.445313-5.289063-2.636719-.644531-5.421875.1875-7.273437 2.171875-30.089844 32.289063-45.871094 74.367188-44.449219 118.503907l-.042969 46.683593c-.023437.246094-.039062.496094-.039062.75 0 .707031.027344 1.410157.035156 2.113281l-.054688 61.136719c-8.734374-3.09375-15.007812-11.4375-15.007812-21.21875v-60c0-18.109375-12.902344-33.261719-29.996094-36.746093l.023438-31.835938c0-59.84375 25.574218-117.105469 70.167968-157.109375 1.574219-1.414063 2.476563-3.425781 2.488282-5.542969.011718-2.117187-.871094-4.136718-2.433594-5.570312-1.605469-1.472656-3.25-2.910156-4.921875-4.3125 19.074219-14.855469 42.453125-23.21875 66.738281-23.722656 1.765625-.039063 3.460938-.695313 4.789063-1.859376 18.261719-16.019531 41.160156-25.625 65.261719-27.53125-.289063 2.164063-.53125 4.335938-.726563 6.511719-.183594 2.109375.527344 4.199219 1.964844 5.753907 1.4375 1.554687 3.472656 2.453124 5.578125 2.410156l.925781-.015625c.386719-.003907.777344-.011719 1.167969-.011719 50.988281 0 100.210937 18.4375 138.601562 51.910156 3.121094 2.722656 7.859375 2.398438 10.582032-.722656 2.722656-3.121094 2.398437-7.859375-.722657-10.582031-39.542969-34.480469-89.820312-54.066407-142.183593-55.519531.3125-2.054688.671874-4.09375 1.074218-6.109376.445313-2.203124-.125-4.492187-1.546875-6.230468-1.425781-1.738282-3.554687-2.746094-5.804687-2.746094-30.058594 0-59.066406 10.574219-81.992188 29.832031-29.914062 1.261719-58.460937 13.03125-80.644531 33.316407-1.65625 1.519531-2.546875 3.699218-2.425781 5.945312s1.246094 4.316406 3.058594 5.644531c1.664062 1.214844 3.308593 2.480469 4.925781 3.789063-43.90625 42.480468-68.9218752 101.214844-68.9218752 162.46875l-.0273438 38.582031c0 1.988281.789062 3.898437 2.195312 5.308594 1.40625 1.40625 3.316407 2.195312 5.304688 2.195312 12.40625 0 22.5 10.09375 22.5 22.5v60c0 20.679688 16.824219 37.5 37.5 37.5 4.140625 0 7.496094-3.351562 7.5-7.492187l.003906-3.03125c2.371094 5.195312 5.003906 10.277344 7.914063 15.214844 14.539062 24.667968 35.320312 45.273437 60.109375 59.597656 2.320312 1.339844 5.183594 1.339844 7.503906 0 3.804688-2.199219 7.578125-4.59375 11.277344-7.152344 17.996094 18.253906 38.308594 33.972656 60.46875 46.777344 1.160156.667968 2.457031 1.003906 3.75 1.003906 1.296875 0 2.59375-.335938 3.753906-1.003906 22.160156-12.804688 42.472656-28.523438 60.46875-46.777344 3.695312 2.558594 7.472656 4.953125 11.273438 7.152344 2.324218 1.339844 5.1875 1.339844 7.507812 0 24.785156-14.324219 45.570312-34.929688 60.105469-59.597656 2.90625-4.933594 5.542969-10.011719 7.910156-15.207032l.007813 3.03125c.007812 4.136719 3.363281 7.484375 7.5 7.484375 20.679687 0 37.5-16.820312 37.5-37.5v-60c0-12.40625 10.09375-22.5 22.5-22.5 1.988281 0 3.898437-.789062 5.304687-2.195312 1.40625-1.410157 2.195313-3.320313 2.195313-5.308594zm-146.75 215.132813c-3.875-2.398438-7.699219-5.011719-11.414062-7.800781-3.054688-2.296876-7.347657-1.929688-9.96875.851562-17.101563 18.164062-36.554688 33.828125-57.871094 46.609375-21.316406-12.78125-40.769532-28.445313-57.871094-46.609375-2.617188-2.78125-6.910156-3.152344-9.964844-.851562-3.714844 2.789062-7.539062 5.402343-11.414062 7.800781-43.757813-27.015625-70.972656-74.921875-71.714844-126.433594l.046875-49.699219c0-.085937-.003906-.167968-.007813-.253906-1.183593-35.902344 10.148438-70.316406 32.109376-98.203125 7.246093 17.609375 19.054687 33.894531 34.664062 47.664063 2.417969 2.132812 5.921875 2.480468 8.710938.875 2.789062-1.609376 4.238281-4.820313 3.605468-7.976563-.65625-3.269531-1.1875-6.558594-1.59375-9.855469 21.828125 39.949219 64.179688 66.246094 111.929688 66.246094 2.25 0 4.378906-1.007812 5.804687-2.746094 1.421875-1.742187 1.992188-4.027344 1.550781-6.230468-.171874-.859376-.335937-1.71875-.492187-2.582032 16.582031 7.59375 34.695313 11.558594 53.140625 11.558594 2.246094 0 4.375-1.011719 5.800781-2.75s1.992188-4.023438 1.550781-6.230469c-.171874-.855469-.335937-1.714843-.492187-2.578125 14.261719 6.53125 29.664063 10.375 45.429687 11.324219l.105469 54.652344c-1.800781 50.285156-28.800781 96.765625-71.644531 123.21875zm0 0"/></svg>