<svg id="Capa_1" enable-background="new 0 0 512 512" height="512" viewBox="0 0 512 512" width="512" xmlns="http://www.w3.org/2000/svg"><g><path d="m407.961 256.017c-20.224-5.15-39.868-11.846-58.465-19.869l6.396-13.303c3.59-7.466.447-16.429-7.02-20.019-7.466-3.588-16.428-.447-20.018 7.02l-6.399 13.311c-9.71-5.171-19.018-10.719-27.857-16.598l8.826-11.935c4.926-6.661 3.52-16.054-3.142-20.979-6.66-4.926-16.054-3.52-20.979 3.142l-8.816 11.921c-1.576-1.302-3.139-2.611-4.67-3.937-6.618-5.729-12.679-11.553-18.16-17.431l11.501-9.101c6.497-5.14 7.596-14.574 2.455-21.07-5.142-6.498-14.576-7.596-21.07-2.455l-11.525 9.12c-11.793-17.971-18.018-35.951-18.018-52.834 0-8.284-6.716-15-15-15h-181c-8.284 0-15 6.716-15 15v330c0 8.284 6.716 15 15 15h241c148.842 0 240.184-28.96 245.548-30.705 6.191-1.97 10.452-7.729 10.452-14.295v-60c0-58.068-45.527-74.657-104.039-74.983zm13.039 30.366c42.319 2.308 56.647 14.88 60.095 33.592-11.631 3.117-32.058 8.051-60.095 12.788zm-30-3.841v31.064c-23.444-6.086-46.113-13.918-67.559-23.263l13.056-27.156c17.449 7.595 35.723 14.104 54.503 19.355zm-81.542-32.351-13.087 27.221c-13.183-6.887-25.763-14.368-37.622-22.379l17.998-24.337c10.351 6.945 21.29 13.461 32.711 19.495zm-63.275-42.74c2.107 1.824 4.262 3.623 6.445 5.405l-17.997 24.336c-5.618-4.555-11.025-9.236-16.182-14.045-6.447-6.012-12.454-12.167-18.028-18.431l23.666-18.726c6.649 7.301 14.023 14.473 22.096 21.461zm-40.707-44.991-23.593 18.669c-16.786-24.452-27.034-49.993-29.981-75.129h30.229c2.797 18.716 10.74 37.81 23.345 56.46zm-83.755-56.46c4.102 42.905 26.631 92.801 76.268 139.087 48.307 45.047 111.49 76.62 174.257 94.504-33.008 3.731-72.059 6.409-116.246 6.409h-105.844c-6.995-62.516-57.162-112.282-120.156-119.175v-120.825zm-91.721 151.056c46.42 6.542 83.247 42.981 89.914 88.944h-89.914zm452 122.676c-27.551 7.451-108.755 26.268-226 26.268h-226v-30h226c112.042 0 191.205-16.311 226-25.191z"/></g></svg>